# xmcd
# 
# Track frame offsets:
#     150
#     59577
#     115681
#     171382
#     192045
#     236134
#     292363
# 
# Disc length: 4394
# 
# Revision: 2
# Processed by: cddbd v1.5.2PL0 Copyright (c) Steve Scherf et al.
# Submitted via: fre:ac v1.0.31
# 
DISCID=6c112807
DTITLE=Donna Leon - Tierische Profite
DYEAR=2013
DGENRE=Hörbuch
TTITLE0=Tierische Profite 09
TTITLE1=Tierische Profite 10
TTITLE2=Tierische Profite 11
TTITLE3=Tierische Profite 12
TTITLE4=Tierische Profite 13
TTITLE5=Tierische Profite 14
TTITLE6=Tierische Profite 15
EXTD=YEAR: 2013
EXTT0=
EXTT1=
EXTT2=
EXTT3=
EXTT4=
EXTT5=
EXTT6=
PLAYORDER=
